<mxfile host="app.diagrams.net" modified="2023-10-12T10:16:12.189Z" agent="Mozilla/5.0 (Windows NT 10.0; Win64; x64) AppleWebKit/537.36 (KHTML, like Gecko) Chrome/117.0.0.0 Safari/537.36" etag="bVoruIenuIh8WwNdPcDP" version="21.7.5" type="device">
  <diagram name="Страница — 1" id="x335jCXoY7CF6FJAbkFm">
    <mxGraphModel dx="1050" dy="534" grid="1" gridSize="10" guides="1" tooltips="1" connect="1" arrows="1" fold="1" page="1" pageScale="1" pageWidth="827" pageHeight="1169" math="0" shadow="0">
      <root>
        <mxCell id="0" />
        <mxCell id="1" parent="0" />
        <mxCell id="yzXkLLYWG713EexWiQre-10" value="" style="edgeStyle=orthogonalEdgeStyle;rounded=0;orthogonalLoop=1;jettySize=auto;html=1;" edge="1" parent="1" source="yzXkLLYWG713EexWiQre-1" target="yzXkLLYWG713EexWiQre-9">
          <mxGeometry relative="1" as="geometry" />
        </mxCell>
        <mxCell id="yzXkLLYWG713EexWiQre-1" value="&lt;font style=&quot;font-size: 18px;&quot; face=&quot;Times New Roman&quot;&gt;Начало&lt;/font&gt;" style="strokeWidth=2;html=1;shape=mxgraph.flowchart.start_1;whiteSpace=wrap;" vertex="1" parent="1">
          <mxGeometry x="339" y="20" width="150" height="50" as="geometry" />
        </mxCell>
        <mxCell id="yzXkLLYWG713EexWiQre-13" value="" style="edgeStyle=orthogonalEdgeStyle;rounded=0;orthogonalLoop=1;jettySize=auto;html=1;" edge="1" parent="1" source="yzXkLLYWG713EexWiQre-5" target="yzXkLLYWG713EexWiQre-12">
          <mxGeometry relative="1" as="geometry" />
        </mxCell>
        <mxCell id="yzXkLLYWG713EexWiQre-5" value="&lt;font style=&quot;font-size: 18px;&quot; face=&quot;Times New Roman&quot;&gt;Ввод x&lt;/font&gt;" style="shape=parallelogram;perimeter=parallelogramPerimeter;whiteSpace=wrap;html=1;fixedSize=1;strokeWidth=2;" vertex="1" parent="1">
          <mxGeometry x="339" y="170" width="149" height="50" as="geometry" />
        </mxCell>
        <mxCell id="yzXkLLYWG713EexWiQre-11" value="" style="edgeStyle=orthogonalEdgeStyle;rounded=0;orthogonalLoop=1;jettySize=auto;html=1;" edge="1" parent="1" source="yzXkLLYWG713EexWiQre-9" target="yzXkLLYWG713EexWiQre-5">
          <mxGeometry relative="1" as="geometry" />
        </mxCell>
        <mxCell id="yzXkLLYWG713EexWiQre-9" value="&lt;font style=&quot;font-size: 18px;&quot; face=&quot;Times New Roman&quot;&gt;x, y&lt;/font&gt;" style="whiteSpace=wrap;html=1;strokeWidth=2;" vertex="1" parent="1">
          <mxGeometry x="366" y="100" width="96" height="35" as="geometry" />
        </mxCell>
        <mxCell id="yzXkLLYWG713EexWiQre-15" value="" style="edgeStyle=orthogonalEdgeStyle;rounded=0;orthogonalLoop=1;jettySize=auto;html=1;" edge="1" parent="1" source="yzXkLLYWG713EexWiQre-12" target="yzXkLLYWG713EexWiQre-14">
          <mxGeometry relative="1" as="geometry" />
        </mxCell>
        <mxCell id="yzXkLLYWG713EexWiQre-17" style="edgeStyle=orthogonalEdgeStyle;rounded=0;orthogonalLoop=1;jettySize=auto;html=1;entryX=0.5;entryY=0;entryDx=0;entryDy=0;exitX=0;exitY=0.5;exitDx=0;exitDy=0;" edge="1" parent="1" source="yzXkLLYWG713EexWiQre-12" target="yzXkLLYWG713EexWiQre-16">
          <mxGeometry relative="1" as="geometry" />
        </mxCell>
        <mxCell id="yzXkLLYWG713EexWiQre-12" value="&lt;font style=&quot;font-size: 18px;&quot; face=&quot;Times New Roman&quot;&gt;x &amp;gt; 0&lt;/font&gt;" style="rhombus;whiteSpace=wrap;html=1;strokeWidth=2;" vertex="1" parent="1">
          <mxGeometry x="335" y="270" width="156.5" height="45" as="geometry" />
        </mxCell>
        <mxCell id="yzXkLLYWG713EexWiQre-25" style="edgeStyle=orthogonalEdgeStyle;rounded=0;orthogonalLoop=1;jettySize=auto;html=1;exitX=0.5;exitY=1;exitDx=0;exitDy=0;entryX=0.5;entryY=0;entryDx=0;entryDy=0;" edge="1" parent="1" source="yzXkLLYWG713EexWiQre-14" target="yzXkLLYWG713EexWiQre-22">
          <mxGeometry relative="1" as="geometry">
            <mxPoint x="430" y="520" as="targetPoint" />
            <Array as="points">
              <mxPoint x="560" y="480" />
              <mxPoint x="275" y="480" />
            </Array>
          </mxGeometry>
        </mxCell>
        <mxCell id="yzXkLLYWG713EexWiQre-14" value="&lt;font style=&quot;font-size: 18px;&quot; face=&quot;Times New Roman&quot;&gt;y = x - 12&lt;/font&gt;" style="whiteSpace=wrap;html=1;strokeWidth=2;" vertex="1" parent="1">
          <mxGeometry x="510" y="400" width="100" height="40" as="geometry" />
        </mxCell>
        <mxCell id="yzXkLLYWG713EexWiQre-19" style="edgeStyle=orthogonalEdgeStyle;rounded=0;orthogonalLoop=1;jettySize=auto;html=1;entryX=0.5;entryY=0;entryDx=0;entryDy=0;exitX=1;exitY=0.5;exitDx=0;exitDy=0;" edge="1" parent="1" source="yzXkLLYWG713EexWiQre-16" target="yzXkLLYWG713EexWiQre-18">
          <mxGeometry relative="1" as="geometry" />
        </mxCell>
        <mxCell id="yzXkLLYWG713EexWiQre-21" style="edgeStyle=orthogonalEdgeStyle;rounded=0;orthogonalLoop=1;jettySize=auto;html=1;exitX=0;exitY=0.5;exitDx=0;exitDy=0;entryX=0.5;entryY=0;entryDx=0;entryDy=0;" edge="1" parent="1" source="yzXkLLYWG713EexWiQre-16" target="yzXkLLYWG713EexWiQre-20">
          <mxGeometry relative="1" as="geometry" />
        </mxCell>
        <mxCell id="yzXkLLYWG713EexWiQre-16" value="&lt;font style=&quot;font-size: 18px;&quot; face=&quot;Times New Roman&quot;&gt;x == 0&lt;/font&gt;" style="rhombus;whiteSpace=wrap;html=1;strokeWidth=2;" vertex="1" parent="1">
          <mxGeometry x="200" y="335" width="156.5" height="45" as="geometry" />
        </mxCell>
        <mxCell id="yzXkLLYWG713EexWiQre-24" value="" style="edgeStyle=orthogonalEdgeStyle;rounded=0;orthogonalLoop=1;jettySize=auto;html=1;" edge="1" parent="1" source="yzXkLLYWG713EexWiQre-18" target="yzXkLLYWG713EexWiQre-22">
          <mxGeometry relative="1" as="geometry">
            <Array as="points">
              <mxPoint x="400" y="460" />
              <mxPoint x="275" y="460" />
            </Array>
          </mxGeometry>
        </mxCell>
        <mxCell id="yzXkLLYWG713EexWiQre-18" value="&lt;font style=&quot;font-size: 18px;&quot; face=&quot;Times New Roman&quot;&gt;y = 5&lt;/font&gt;" style="whiteSpace=wrap;html=1;strokeWidth=2;" vertex="1" parent="1">
          <mxGeometry x="350" y="400" width="100" height="40" as="geometry" />
        </mxCell>
        <mxCell id="yzXkLLYWG713EexWiQre-23" style="edgeStyle=orthogonalEdgeStyle;rounded=0;orthogonalLoop=1;jettySize=auto;html=1;entryX=0.5;entryY=0;entryDx=0;entryDy=0;exitX=0.5;exitY=1;exitDx=0;exitDy=0;" edge="1" parent="1" source="yzXkLLYWG713EexWiQre-20" target="yzXkLLYWG713EexWiQre-22">
          <mxGeometry relative="1" as="geometry">
            <Array as="points">
              <mxPoint x="150" y="460" />
              <mxPoint x="275" y="460" />
            </Array>
          </mxGeometry>
        </mxCell>
        <mxCell id="yzXkLLYWG713EexWiQre-20" value="&lt;font style=&quot;font-size: 18px;&quot; face=&quot;Times New Roman&quot;&gt;y = x * x&lt;/font&gt;" style="whiteSpace=wrap;html=1;strokeWidth=2;" vertex="1" parent="1">
          <mxGeometry x="100" y="400" width="100" height="40" as="geometry" />
        </mxCell>
        <mxCell id="yzXkLLYWG713EexWiQre-27" value="" style="edgeStyle=orthogonalEdgeStyle;rounded=0;orthogonalLoop=1;jettySize=auto;html=1;" edge="1" parent="1" source="yzXkLLYWG713EexWiQre-22" target="yzXkLLYWG713EexWiQre-26">
          <mxGeometry relative="1" as="geometry" />
        </mxCell>
        <mxCell id="yzXkLLYWG713EexWiQre-22" value="&lt;font face=&quot;Times New Roman&quot;&gt;&lt;span style=&quot;font-size: 18px;&quot;&gt;Вывод y&lt;/span&gt;&lt;/font&gt;" style="shape=parallelogram;perimeter=parallelogramPerimeter;whiteSpace=wrap;html=1;fixedSize=1;strokeWidth=2;" vertex="1" parent="1">
          <mxGeometry x="200" y="500" width="149" height="50" as="geometry" />
        </mxCell>
        <mxCell id="yzXkLLYWG713EexWiQre-26" value="&lt;font style=&quot;font-size: 18px;&quot; face=&quot;Times New Roman&quot;&gt;Конец&lt;/font&gt;" style="strokeWidth=2;html=1;shape=mxgraph.flowchart.start_1;whiteSpace=wrap;" vertex="1" parent="1">
          <mxGeometry x="199" y="585" width="150" height="50" as="geometry" />
        </mxCell>
        <mxCell id="yzXkLLYWG713EexWiQre-28" value="+" style="text;strokeColor=none;fillColor=none;html=1;fontSize=24;fontStyle=1;verticalAlign=middle;align=center;" vertex="1" parent="1">
          <mxGeometry x="440" y="260" width="100" height="40" as="geometry" />
        </mxCell>
        <mxCell id="yzXkLLYWG713EexWiQre-29" value="+" style="text;strokeColor=none;fillColor=none;html=1;fontSize=24;fontStyle=1;verticalAlign=middle;align=center;" vertex="1" parent="1">
          <mxGeometry x="310" y="320" width="100" height="40" as="geometry" />
        </mxCell>
        <mxCell id="yzXkLLYWG713EexWiQre-30" value="-" style="text;strokeColor=none;fillColor=none;html=1;fontSize=24;fontStyle=1;verticalAlign=middle;align=center;" vertex="1" parent="1">
          <mxGeometry x="140" y="320" width="100" height="40" as="geometry" />
        </mxCell>
        <mxCell id="yzXkLLYWG713EexWiQre-31" value="-" style="text;strokeColor=none;fillColor=none;html=1;fontSize=24;fontStyle=1;verticalAlign=middle;align=center;" vertex="1" parent="1">
          <mxGeometry x="280" y="260" width="100" height="40" as="geometry" />
        </mxCell>
      </root>
    </mxGraphModel>
  </diagram>
</mxfile>
